<svg xmlns="http://www.w3.org/2000/svg" width="18" height="17.974" viewBox="0 0 18 17.974">
  <g id="configuration" transform="translate(-40.5 -35.1)">
    <g id="Group_12812" data-name="Group 12812" transform="translate(43.177 40.088)">
      <path id="Path_5249" data-name="Path 5249" d="M112.3,158.972h-5.362a.536.536,0,0,1,0-1.072H112.3a.536.536,0,1,1,0,1.072Z" transform="translate(-106.4 -157.9)" fill="#fff"/>
    </g>
    <g id="Group_12813" data-name="Group 12813" transform="translate(43.177 37.781)">
      <path id="Path_5250" data-name="Path 5250" d="M112.3,102.172h-5.362a.536.536,0,0,1,0-1.072H112.3a.536.536,0,1,1,0,1.072Z" transform="translate(-106.4 -101.1)" fill="#fff"/>
    </g>
    <g id="Group_12814" data-name="Group 12814" transform="translate(43.177 42.391)">
      <path id="Path_5251" data-name="Path 5251" d="M108.695,215.672h-1.759a.536.536,0,0,1,0-1.072h1.759a.536.536,0,1,1,0,1.072Z" transform="translate(-106.4 -214.6)" fill="#fff"/>
    </g>
    <g id="Group_12815" data-name="Group 12815" transform="translate(46.356 40.62)">
      <path id="Path_5252" data-name="Path 5252" d="M196.5,178.356q-.494-.39-.95-.743a.067.067,0,0,1-.033-.061c0-.211,0-.426,0-.638a.068.068,0,0,1,.028-.061c.244-.191.487-.382.727-.573l.227-.179a.76.76,0,0,0,.2-1.011l-.012-.02-1.117-1.933a.887.887,0,0,0-.195-.236.749.749,0,0,0-.784-.106l-.256.1c-.288.114-.581.236-.873.349a.116.116,0,0,1-.053,0c-.167-.093-.362-.207-.556-.325a.092.092,0,0,1-.032-.045c-.053-.378-.11-.768-.162-1.149a.788.788,0,0,0-.362-.605.827.827,0,0,0-.455-.122h-2.116a1.969,1.969,0,0,0-.215.012.693.693,0,0,0-.605.443,2.05,2.05,0,0,0-.1.414l-.008.061c-.028.183-.053.37-.077.548-.02.134-.037.272-.057.406a.1.1,0,0,1-.041.053c-.089.053-.179.106-.264.154s-.179.1-.268.158a.075.075,0,0,1-.081.008c-.134-.053-.268-.11-.4-.162-.236-.093-.467-.191-.7-.284a.833.833,0,0,0-.223-.065.768.768,0,0,0-.784.41c-.122.211-.244.426-.37.638-.24.418-.491.853-.739,1.275a.783.783,0,0,0,.211,1.052c.256.195.512.4.76.593l.179.142a.071.071,0,0,1,.024.049q.006.323,0,.646a.081.081,0,0,1-.024.053c-.321.252-.642.508-.955.751a.757.757,0,0,0-.2,1.015c.349.605.719,1.243,1.125,1.946a.636.636,0,0,0,.126.167.743.743,0,0,0,.861.171l.016-.008c.366-.146.739-.292,1.109-.443a.056.056,0,0,1,.065.008q.268.164.536.317a.065.065,0,0,1,.041.053l.085.621.073.536a.8.8,0,0,0,.207.467.79.79,0,0,0,.6.248h2.238a.768.768,0,0,0,.78-.67c.049-.325.093-.654.138-.975l.032-.227a.079.079,0,0,1,.053-.077c.171-.093.341-.191.528-.3a.069.069,0,0,1,.073-.008c.366.146.739.3,1.113.447a.9.9,0,0,0,.227.061.753.753,0,0,0,.755-.386c.357-.609.727-1.251,1.137-1.966A.736.736,0,0,0,196.5,178.356Zm-9.838,2.384-.325-.561c-.223-.386-.443-.768-.666-1.154.069-.053.138-.11.207-.162l.284-.223c.045-.037.089-.069.134-.106.114-.085.227-.179.337-.276a.881.881,0,0,0,.28-.751,2.765,2.765,0,0,1,0-.52.933.933,0,0,0-.39-.877c-.2-.158-.41-.317-.609-.475-.073-.057-.142-.114-.215-.171a.108.108,0,0,1-.024-.02c.329-.573.658-1.137.991-1.714l.081.033c.053.02.106.041.158.065l.268.11c.191.077.39.158.589.232a.857.857,0,0,0,.747-.069c.093-.053.183-.106.272-.158l.321-.187a.954.954,0,0,0,.5-.772c.024-.207.053-.418.085-.621.02-.138.041-.276.057-.41v0h1.958c.024,0,.028,0,.028,0s0,0,.008.028l.02.162c.045.329.089.666.146,1a.834.834,0,0,0,.435.589l.15.085c.142.081.288.162.431.252a.912.912,0,0,0,.865.077l.666-.268.366-.146c.276.475.548.95.829,1.43l.167.288-.288.227c-.065.053-.134.106-.2.158-.154.118-.313.244-.459.374a.85.85,0,0,0-.288.735,4.109,4.109,0,0,1-.02.8.443.443,0,0,0,.162.418c.24.191.483.382.719.569l.13.1c.033.028.069.053.1.081.049.037.1.077.15.118-.337.573-.674,1.162-.991,1.714a.145.145,0,0,1-.037-.016l-.337-.134c-.236-.093-.479-.195-.723-.288a.855.855,0,0,0-.751.073c-.077.045-.154.089-.227.134-.114.069-.236.138-.353.2a.944.944,0,0,0-.508.776c-.028.219-.061.443-.089.658-.016.126-.037.248-.053.374v0H189.8c-.024,0-.028,0-.028,0s0,0-.008-.028c-.053-.39-.106-.768-.171-1.154a.845.845,0,0,0-.435-.6c-.077-.045-.154-.089-.232-.138-.13-.077-.26-.154-.394-.227a.95.95,0,0,0-.459-.13.8.8,0,0,0-.288.053c-.24.089-.483.191-.715.284-.114.045-.227.093-.341.138C186.7,180.728,186.681,180.736,186.665,180.74Z" transform="translate(-184.673 -171)" fill="#fff"/>
      <path id="Path_5253" data-name="Path 5253" d="M282.3,274.875h.028a2.2,2.2,0,0,0,2.165-2.222,2.205,2.205,0,0,0-.678-1.556,2.176,2.176,0,0,0-1.564-.609,2.2,2.2,0,0,0-2.149,2.2,2.191,2.191,0,0,0,2.2,2.185Zm1.247-2.181a1.246,1.246,0,0,1-1.243,1.235h0a1.241,1.241,0,0,1-.885-.366,1.267,1.267,0,0,1-.366-.894,1.224,1.224,0,0,1,.366-.869,1.257,1.257,0,0,1,.89-.366h.008a1.191,1.191,0,0,1,.857.349A1.243,1.243,0,0,1,283.544,272.694Z" transform="translate(-276.224 -266.447)" fill="#fff"/>
    </g>
    <g id="Group_12816" data-name="Group 12816" transform="translate(40.5 35.1)">
      <path id="Path_5254" data-name="Path 5254" d="M52.291,39.751V37.245A2.148,2.148,0,0,0,50.147,35.1h-7.5A2.148,2.148,0,0,0,40.5,37.245V47.968a2.148,2.148,0,0,0,2.145,2.145H45.89l-.674-1.072H42.645a1.071,1.071,0,0,1-1.072-1.072V37.245a1.071,1.071,0,0,1,1.072-1.072h7.5a1.071,1.071,0,0,1,1.072,1.072v2.506Z" transform="translate(-40.5 -35.1)" fill="#fff"/>
    </g>
  </g>
</svg>
