<svg xmlns="http://www.w3.org/2000/svg" width="20" height="19.971" viewBox="0 0 20 19.971">
  <g id="configuration" transform="translate(-40.5 -35.1)">
    <g id="Group_12812" data-name="Group 12812" transform="translate(43.474 40.642)">
      <path id="Path_5249" data-name="Path 5249" d="M112.953,159.091H107a.6.6,0,0,1,0-1.191h5.957a.6.6,0,0,1,0,1.191Z" transform="translate(-106.4 -157.9)" fill="#333"/>
    </g>
    <g id="Group_12813" data-name="Group 12813" transform="translate(43.474 38.079)">
      <path id="Path_5250" data-name="Path 5250" d="M112.953,102.291H107a.6.6,0,0,1,0-1.191h5.957a.6.6,0,1,1,0,1.191Z" transform="translate(-106.4 -101.1)" fill="#333"/>
    </g>
    <g id="Group_12814" data-name="Group 12814" transform="translate(43.474 43.201)">
      <path id="Path_5251" data-name="Path 5251" d="M108.95,215.791H107a.6.6,0,1,1,0-1.191h1.954a.6.6,0,0,1,0,1.191Z" transform="translate(-106.4 -214.6)" fill="#333"/>
    </g>
    <g id="Group_12815" data-name="Group 12815" transform="translate(47.007 41.233)">
      <path id="Path_5252" data-name="Path 5252" d="M197.817,179.173q-.548-.433-1.056-.826a.075.075,0,0,1-.036-.068c0-.235,0-.474,0-.709a.076.076,0,0,1,.032-.068c.271-.212.542-.424.808-.636l.253-.2a.844.844,0,0,0,.221-1.124l-.014-.023c-.406-.7-.826-1.431-1.241-2.148a.986.986,0,0,0-.217-.262.833.833,0,0,0-.871-.117l-.284.113c-.32.126-.645.262-.97.388a.128.128,0,0,1-.059,0c-.185-.1-.4-.23-.618-.361a.1.1,0,0,1-.036-.05c-.059-.42-.122-.853-.181-1.277a.876.876,0,0,0-.4-.672.919.919,0,0,0-.505-.135h-2.351a2.184,2.184,0,0,0-.239.014.77.77,0,0,0-.672.492,2.278,2.278,0,0,0-.108.46l-.009.068c-.032.2-.059.411-.086.609-.023.149-.041.3-.063.451a.11.11,0,0,1-.045.059c-.1.059-.2.117-.293.171s-.2.113-.3.176a.083.083,0,0,1-.09.009c-.149-.059-.3-.122-.447-.181-.262-.1-.519-.212-.781-.316a.925.925,0,0,0-.248-.072.853.853,0,0,0-.871.456c-.135.235-.271.474-.411.709-.266.465-.546.948-.821,1.417a.87.87,0,0,0,.235,1.169c.284.217.569.442.844.659l.2.158a.079.079,0,0,1,.027.054q.007.359,0,.718a.09.09,0,0,1-.027.059c-.357.28-.713.564-1.061.835a.841.841,0,0,0-.221,1.128c.388.672.8,1.381,1.25,2.162a.707.707,0,0,0,.14.185.826.826,0,0,0,.957.19l.018-.009c.406-.162.821-.325,1.232-.492a.062.062,0,0,1,.072.009q.3.183.6.352a.072.072,0,0,1,.045.059l.095.691.081.6a.89.89,0,0,0,.23.519.878.878,0,0,0,.663.275h2.487a.853.853,0,0,0,.867-.745c.054-.361.1-.727.153-1.083l.036-.253a.088.088,0,0,1,.059-.086c.19-.1.379-.212.587-.338a.077.077,0,0,1,.081-.009c.406.162.821.334,1.237.5a1,1,0,0,0,.253.068.837.837,0,0,0,.839-.429c.4-.677.808-1.39,1.264-2.184A.818.818,0,0,0,197.817,179.173Zm-10.931,2.649-.361-.623c-.248-.429-.492-.853-.74-1.282.077-.059.153-.122.23-.181l.316-.248c.05-.041.1-.077.149-.117.126-.095.253-.2.375-.307a.979.979,0,0,0,.311-.835,3.073,3.073,0,0,1,0-.578,1.037,1.037,0,0,0-.433-.975c-.226-.176-.456-.352-.677-.528-.081-.063-.158-.126-.239-.19a.119.119,0,0,1-.027-.023c.366-.636.731-1.264,1.1-1.9l.09.036c.059.023.117.045.176.072l.3.122c.212.086.433.176.654.257a.953.953,0,0,0,.83-.077c.1-.059.2-.117.3-.176l.357-.208a1.06,1.06,0,0,0,.56-.857c.027-.23.059-.465.095-.691.023-.153.045-.307.063-.456v0h2.175c.027,0,.032,0,.032,0s0,0,.009.032l.023.181c.05.366.1.74.162,1.106a.927.927,0,0,0,.483.654l.167.095c.158.09.32.181.478.28a1.013,1.013,0,0,0,.961.086l.74-.3.406-.162c.307.528.609,1.056.921,1.589l.185.32-.32.253c-.072.059-.149.117-.221.176-.171.131-.348.271-.51.415a.944.944,0,0,0-.32.817,4.565,4.565,0,0,1-.023.889.492.492,0,0,0,.181.465c.266.212.537.424.8.632l.144.113c.036.032.077.059.113.09.054.041.108.086.167.131-.375.636-.749,1.291-1.1,1.9a.161.161,0,0,1-.041-.018l-.375-.149c-.262-.1-.533-.217-.8-.32a.95.95,0,0,0-.835.081c-.086.05-.172.1-.253.149-.126.077-.262.153-.393.226a1.049,1.049,0,0,0-.564.862c-.032.244-.068.492-.1.731-.018.14-.041.275-.059.415v0H190.37c-.027,0-.032,0-.032,0s0,0-.009-.032c-.059-.433-.117-.853-.19-1.282a.939.939,0,0,0-.483-.663c-.086-.05-.171-.1-.257-.153-.144-.086-.289-.172-.438-.253a1.056,1.056,0,0,0-.51-.144.893.893,0,0,0-.32.059c-.266.1-.537.212-.794.316-.126.05-.253.1-.379.153C186.922,181.809,186.9,181.818,186.886,181.822Z" transform="translate(-184.673 -171)" fill="#333"/>
      <path id="Path_5253" data-name="Path 5253" d="M282.541,275.363h.032a2.442,2.442,0,0,0,2.405-2.469,2.45,2.45,0,0,0-.754-1.729,2.418,2.418,0,0,0-1.738-.677,2.448,2.448,0,0,0-2.387,2.446,2.434,2.434,0,0,0,2.442,2.428Zm1.386-2.424a1.385,1.385,0,0,1-1.381,1.372h0a1.379,1.379,0,0,1-.984-.406,1.407,1.407,0,0,1-.406-.993,1.36,1.36,0,0,1,.406-.966,1.4,1.4,0,0,1,.988-.406h.009a1.323,1.323,0,0,1,.952.388A1.381,1.381,0,0,1,283.927,272.939Z" transform="translate(-275.793 -265.998)" fill="#333"/>
    </g>
    <g id="Group_12816" data-name="Group 12816" transform="translate(40.5 35.1)">
      <path id="Path_5254" data-name="Path 5254" d="M53.6,40.268V37.483A2.386,2.386,0,0,0,51.219,35.1H42.883A2.386,2.386,0,0,0,40.5,37.483V49.4a2.386,2.386,0,0,0,2.383,2.383h3.606l-.749-1.191H42.883A1.19,1.19,0,0,1,41.691,49.4V37.483a1.19,1.19,0,0,1,1.191-1.191h8.336a1.19,1.19,0,0,1,1.191,1.191v2.785H53.6Z" transform="translate(-40.5 -35.1)" fill="#333"/>
    </g>
  </g>
</svg>
