<svg id="trash-bank_name" data-name="trash-bank name" xmlns="http://www.w3.org/2000/svg" width="16" height="18.673" viewBox="0 0 16 18.673">
  <path id="Path_5245" data-name="Path 5245" d="M65.737,36.327c-.242,0-.476,0-.71,0a.665.665,0,0,1-.15-1.311,1.072,1.072,0,0,1,.23-.021h3.915c0-.05.008-.092.008-.134,0-.326,0-.655.012-.981a1.639,1.639,0,0,1,1.344-1.519,2.2,2.2,0,0,1,.372-.033c1.073,0,2.141,0,3.214,0a1.66,1.66,0,0,1,1.482.8,1.708,1.708,0,0,1,.25.931c0,.267,0,.534,0,.806V35h3.969a.664.664,0,0,1,.063,1.327c-.242.008-.484,0-.735,0-.012.192-.029.38-.038.563-.054.881-.109,1.757-.163,2.638-.063,1-.125,2.008-.188,3.009-.046.751-.092,1.5-.138,2.25-.054.9-.113,1.795-.167,2.692-.033.505-.063,1.01-.1,1.515a2.114,2.114,0,0,1-.793,1.594A1.938,1.938,0,0,1,76.16,51H68.6a1.954,1.954,0,0,1-1.736-.939,2.045,2.045,0,0,1-.313-1.031q-.157-2.417-.3-4.833l-.225-3.69c-.088-1.373-.171-2.746-.259-4.12C65.741,36.373,65.741,36.356,65.737,36.327Zm1.348,0v.113c.029.509.063,1.018.1,1.528.054.885.113,1.77.167,2.659l.163,2.634c.063,1,.125,2.008.188,3.009.054.877.1,1.749.163,2.625a1.2,1.2,0,0,0,.083.384.654.654,0,0,0,.66.384H76.2a.622.622,0,0,0,.6-.422,1.51,1.51,0,0,0,.075-.409c.037-.53.067-1.06.1-1.594.079-1.235.154-2.467.234-3.7.063-1,.121-2.008.184-3.009.075-1.236.154-2.467.234-3.7.008-.163.017-.33.029-.5Zm7.275-1.34c0-.359.008-.705,0-1.052a.291.291,0,0,0-.326-.276c-1.106,0-2.208,0-3.314,0a.313.313,0,0,0-.342.313c-.013.334,0,.668,0,1,0,0,.008.013.017.021Q72.363,34.989,74.361,34.991Z" transform="translate(-64.371 -32.325)" fill="#dc3545"/>
  <path id="Path_5246" data-name="Path 5246" d="M169.682,165.574c.054,1.523.109,3.051.163,4.574a.66.66,0,0,1-.451.706.651.651,0,0,1-.868-.539c-.029-.259-.033-.518-.042-.781q-.069-2.035-.142-4.07c-.054-1.494-.1-2.993-.158-4.487a.671.671,0,0,1,.442-.709.662.662,0,0,1,.885.609c.025.584.046,1.173.067,1.761.033.977.071,1.953.1,2.934Z" transform="translate(-163.85 -154.89)" fill="#dc3545"/>
  <path id="Path_5247" data-name="Path 5247" d="M304.055,165.459c.054-1.553.113-3.11.167-4.662a.655.655,0,0,1,.4-.618.624.624,0,0,1,.714.121.655.655,0,0,1,.213.534c-.054,1.461-.1,2.926-.155,4.387-.037,1.123-.079,2.246-.117,3.364-.021.534-.033,1.073-.067,1.607a.626.626,0,0,1-.488.572.674.674,0,0,1-.705-.25.7.7,0,0,1-.129-.455c.008-.288.017-.58.029-.868.046-1.248.092-2.488.134-3.732Z" transform="translate(-293.895 -154.784)" fill="#dc3545"/>
  <path id="Path_5248" data-name="Path 5248" d="M241.427,165.506c0,1.532,0,3.068,0,4.6a.694.694,0,0,1-.5.7.668.668,0,0,1-.826-.588c0-.033,0-.067,0-.1v-9.245a.663.663,0,0,1,1.323-.1c0,.054,0,.109,0,.167Z" transform="translate(-232.766 -154.826)" fill="#dc3545"/>
</svg>
