<svg xmlns="http://www.w3.org/2000/svg" width="12.504" height="15.923" viewBox="0 0 12.504 15.923">
    <path data-name="Path 5135" d="M74.3 32.593v-5.622a2.266 2.266 0 0 1 .478-1.449 2.116 2.116 0 0 1 1.662-.871c1.2-.024 2.409-.014 3.613-.014a1.754 1.754 0 0 1 1.283.547q2.457 2.462 4.917 4.92a1.8 1.8 0 0 1 .551 1.328q-.005 3.391 0 6.778a2.269 2.269 0 0 1-.826 1.824 2.1 2.1 0 0 1-1.311.513c-.489.014-.977.01-1.462.01h-6.534a2.365 2.365 0 0 1-.874-.141 2.245 2.245 0 0 1-1.356-1.352 2.459 2.459 0 0 1-.141-.864v-5.607zm5.688-6.813a.709.709 0 0 0-.072-.007h-3.331a1.112 1.112 0 0 0-.987.561 1.213 1.213 0 0 0-.155.674V37.95c0 .141 0 .282.01.423a1.088 1.088 0 0 0 .668.946 1.124 1.124 0 0 0 .509.1h7.855a1.156 1.156 0 0 0 1.194-1.215q-.005-3.324 0-6.644v-.1h-3.895a2.442 2.442 0 0 1-.42-.038A1.686 1.686 0 0 1 80 29.827c-.01-1.307 0-2.615 0-3.922a.361.361 0 0 1-.012-.124zm1.132.819v3.131a.724.724 0 0 0 .028.193.572.572 0 0 0 .606.4h3.09q-1.863-1.86-3.724-3.723z" transform="translate(-74.3 -24.636)" style="fill:#ed960b"/>
    <path data-name="Path 5136" d="M160.214 356.142h-2.777a.585.585 0 0 1-.478-.2.545.545 0 0 1-.1-.6.559.559 0 0 1 .53-.351H163a.587.587 0 0 1 .544.272.532.532 0 0 1 .031.544.564.564 0 0 1-.537.327h-1.022z" transform="translate(-153.973 -343.633)" style="fill:#ed960b"/>
    <path data-name="Path 5137" d="M160.205 272.576H163a.567.567 0 0 1 .1 1.129h-5.695a.582.582 0 0 1-.561-.317.567.567 0 0 1 .468-.812c.912-.007 1.827 0 2.739 0z" transform="translate(-153.95 -264.044)" style="fill:#ed960b"/>
</svg>
