<svg id="edit_post" data-name="edit post" xmlns="http://www.w3.org/2000/svg" width="16" height="17.522" viewBox="0 0 16 17.522">
  <g id="Group_12793" data-name="Group 12793">
    <path id="Path_5163" data-name="Path 5163" d="M32.759,32.116a1.167,1.167,0,0,0,0-.117l-1.234,1.234c0,2.113,0,4.222,0,6.338a1.272,1.272,0,0,1-1.314,1.337H21.563A1.236,1.236,0,0,1,21,40.8a1.2,1.2,0,0,1-.735-1.041c-.011-.155-.011-.31-.011-.466V27.251a1.335,1.335,0,0,1,.17-.742,1.224,1.224,0,0,1,1.087-.617c1.219,0,2.442,0,3.665,0a.781.781,0,0,1,.079.008.4.4,0,0,0,.015.136c0,1.439-.008,2.878,0,4.316a1.856,1.856,0,0,0,1.5,1.753,2.688,2.688,0,0,0,.462.042h.594q.625-.625,1.242-1.246H27.2a.629.629,0,0,1-.666-.443.8.8,0,0,1-.03-.212v-3.4c0-.015,0-.03,0-.049q1.67,1.675,3.332,3.336.449-.454.9-.9-1.993-1.993-3.987-3.995a1.93,1.93,0,0,0-1.412-.6c-1.325,0-2.65-.011-3.976.015a2.329,2.329,0,0,0-1.829.958A2.476,2.476,0,0,0,19,27.206v6.187c0,2.056,0,4.112,0,6.172a2.706,2.706,0,0,0,.155.95A2.47,2.47,0,0,0,20.647,42a2.6,2.6,0,0,0,.962.155H28.8c.534,0,1.072,0,1.609-.011a2.306,2.306,0,0,0,1.443-.564,2.5,2.5,0,0,0,.909-2.007Q32.754,35.844,32.759,32.116Z" transform="translate(-19 -24.636)" fill="#ed960b"/>
  </g>
  <g id="Group_12794" data-name="Group 12794" transform="translate(5.486 2.725)">
    <path id="Path_5164" data-name="Path 5164" d="M171.876,137.586a.394.394,0,0,1,.3.114c.2.193.39.39.583.587a.4.4,0,0,1,.015.53c-.019.023-.042.045-.064.068q-3.465,3.459-6.929,6.914a.8.8,0,0,1-.2.148c-.348.182-.7.36-1.049.538a.44.44,0,0,1-.371.03.394.394,0,0,1-.219-.511c.083-.189.185-.371.276-.553.023-.049.053-.094.072-.144a3.012,3.012,0,0,1,.708-.981q3.294-3.283,6.573-6.581A.413.413,0,0,1,171.876,137.586Z" transform="translate(-163.902 -136.034)" fill="#ed960b"/>
    <path id="Path_5165" data-name="Path 5165" d="M386.9,97.7a.372.372,0,0,1,.1-.257c.216-.22.424-.443.655-.647a.793.793,0,0,1,1.178.174.805.805,0,0,1-.118,1.041c-.178.182-.359.36-.541.534a.4.4,0,0,1-.6,0c-.186-.182-.367-.363-.549-.549A.414.414,0,0,1,386.9,97.7Z" transform="translate(-378.457 -96.608)" fill="#ed960b"/>
  </g>
</svg>
