<svg xmlns="http://www.w3.org/2000/svg" width="43.561" height="38.12" viewBox="0 0 43.561 38.12">
    <path data-name="Path 5275" d="M62.76 61.314a5.621 5.621 0 0 0-.313-1.988 5.128 5.128 0 0 0-3.2-3.2 6.064 6.064 0 0 0-1.951-.322c0-.58.037-1.132-.009-1.684a5.307 5.307 0 0 0-2.531-4.27 5.631 5.631 0 0 0-3.123-.85H25.458c-.387 0-.782 0-1.169.028a5.272 5.272 0 0 0-3.1 1.233 5.375 5.375 0 0 0-1.988 4.3V76.1a5.4 5.4 0 0 0 1.178 3.479 5.052 5.052 0 0 0 3.12 1.933 19.165 19.165 0 0 0 2.19.147c.1.009.2 0 .3 0a8.566 8.566 0 0 0 .1 1.012 5.079 5.079 0 0 0 .258.976 5.2 5.2 0 0 0 2.669 2.954 5.512 5.512 0 0 0 2.457.515h25.76a6.035 6.035 0 0 0 1.9-.285 5.212 5.212 0 0 0 3.58-4.7c.028-.69.018-1.38.028-2.062.028-6.269.019-12.506.019-18.755zm-35.443-3.69a5.224 5.224 0 0 0-1.288 3.571q.014 8.711 0 17.431v.313a6.661 6.661 0 0 1-2.347-.2 2.657 2.657 0 0 1-1.721-2.319c-.009-.11-.009-.221-.009-.341v-21.5a2.763 2.763 0 0 1 1.408-2.513 2.8 2.8 0 0 1 1.491-.341h26.92a2.7 2.7 0 0 1 2.66 1.767 2.278 2.278 0 0 1 .156.782c.028.5.009 1 .009 1.537H31.468a5.23 5.23 0 0 0-4.151 1.813zM41.362 84.24a.547.547 0 0 1-.35.147q-4.8.014-9.618.009a2.5 2.5 0 0 1-2.6-2.08 6.338 6.338 0 0 1-.055-1.031c-.009-.4 0-.791-.009-1.187a.43.43 0 0 1 .156-.368q3.7-3.258 7.4-6.525l1.822-1.6a1.293 1.293 0 0 1 1.491-.267 1.359 1.359 0 0 1 .4.285q3.479 3.437 6.958 6.893c.018.018.037.046.074.092-.064.064-.11.12-.166.175-1.822 1.803-3.653 3.635-5.503 5.457zm18.517-1.546a2.483 2.483 0 0 1-2.479 1.693H45.08c.083-.092.138-.147.193-.2l7.427-7.374a1.29 1.29 0 0 1 1.924-.1q2.651 2.181 5.274 4.362a.465.465 0 0 1 .138.295 5.277 5.277 0 0 1-.157 1.324zm.166-15.949V77.65c-.506-.423-.976-.81-1.454-1.2-.884-.718-1.749-1.463-2.651-2.144a3.736 3.736 0 0 0-3.138-.6 4.044 4.044 0 0 0-1.979 1.132c-.561.543-1.1 1.1-1.657 1.647a1.58 1.58 0 0 0-.166.258c-.433-.46-.8-.856-1.187-1.233-1.933-1.924-3.875-3.838-5.8-5.771a4.048 4.048 0 0 0-3.322-1.27 3.93 3.93 0 0 0-2.338 1.031q-3.686 3.272-7.39 6.534c-.055.046-.11.092-.212.184V61.25a2.606 2.606 0 0 1 1.3-2.4 2.72 2.72 0 0 1 1.445-.331H57.3a2.667 2.667 0 0 1 1.427.322 2.55 2.55 0 0 1 1.316 2.328z" transform="translate(-19.2 -49)" style="fill:#979797"/>
    <path data-name="Path 5276" d="M324.876 179.4a3.958 3.958 0 1 0 3.976 3.967 3.955 3.955 0 0 0-3.976-3.967zm-.028 5.191a1.243 1.243 0 0 1-1.233-1.252 1.257 1.257 0 0 1 2.513.046 1.244 1.244 0 0 1-1.28 1.206z" transform="translate(-293.133 -167.399)" style="fill:#979797"/>
</svg>
