<svg id="preview_post" data-name="preview post" xmlns="http://www.w3.org/2000/svg" width="13.886" height="17.673" viewBox="0 0 13.886 17.673">
  <path id="Path_5243" data-name="Path 5243" d="M91.361,49.673H82.525A2.527,2.527,0,0,1,80,47.149V34.525A2.527,2.527,0,0,1,82.525,32h8.837a2.527,2.527,0,0,1,2.525,2.525V47.149A2.527,2.527,0,0,1,91.361,49.673ZM82.525,33.262a1.266,1.266,0,0,0-1.262,1.262V47.149a1.266,1.266,0,0,0,1.262,1.262h8.837a1.266,1.266,0,0,0,1.262-1.262V34.525a1.266,1.266,0,0,0-1.262-1.262Z" transform="translate(-80 -32)" fill="#3270db"/>
  <path id="Path_5244" data-name="Path 5244" d="M163.787,119.574h-3.156a.631.631,0,0,1,0-1.262h3.156a.631.631,0,0,1,0,1.262Zm3.156-3.156h-6.312a.631.631,0,0,1,0-1.262h6.312a.631.631,0,1,1,0,1.262Zm0-3.156h-6.312a.631.631,0,0,1,0-1.262h6.312a.631.631,0,1,1,0,1.262Z" transform="translate(-156.844 -108.844)" fill="#3270db"/>
</svg>
