<svg xmlns="http://www.w3.org/2000/svg" width="15" height="16.427" viewBox="0 0 15 16.427">
    <g id="register" transform="translate(-19 -24.636)">
        <g id="Group_12793" data-name="Group 12793" transform="translate(19 24.636)">
            <path id="Path_5163" data-name="Path 5163" class="cls-1" d="M31.9 31.649v-.11L30.739 32.7v5.942a1.193 1.193 0 0 1-1.232 1.253H21.4a1.159 1.159 0 0 1-.525-.1 1.123 1.123 0 0 1-.689-.976c-.011-.146-.011-.291-.011-.437V27.088a1.251 1.251 0 0 1 .16-.7 1.147 1.147 0 0 1 1.019-.579h3.436a.732.732 0 0 1 .075.007.372.372 0 0 0 .014.128c0 1.349-.007 2.7 0 4.047a1.74 1.74 0 0 0 1.4 1.644 2.519 2.519 0 0 0 .433.039h.557q.586-.586 1.164-1.168h-1.748a.59.59 0 0 1-.625-.415.747.747 0 0 1-.028-.2V26.662q1.565 1.571 3.124 3.127.421-.426.841-.841-1.869-1.869-3.738-3.745a1.809 1.809 0 0 0-1.324-.564c-1.242 0-2.485-.011-3.727.014a2.183 2.183 0 0 0-1.714.9 2.321 2.321 0 0 0-.5 1.494V38.633a2.537 2.537 0 0 0 .146.891 2.316 2.316 0 0 0 1.4 1.4 2.44 2.44 0 0 0 .9.146h6.741c.5 0 1 0 1.509-.011a2.162 2.162 0 0 0 1.352-.529 2.341 2.341 0 0 0 .852-1.881q0-3.505.006-7z" transform="translate(-19 -24.636)"/>
        </g>
        <g id="Group_12794" data-name="Group 12794" transform="translate(24.144 27.191)">
            <path id="Path_5164" data-name="Path 5164" class="cls-1" d="M171.378 137.586a.369.369 0 0 1 .277.106c.185.181.366.366.547.55a.37.37 0 0 1 .014.5 1.172 1.172 0 0 1-.06.064q-3.248 3.243-6.5 6.482a.757.757 0 0 1-.192.138c-.327.17-.657.337-.983.5a.413.413 0 0 1-.348.028.37.37 0 0 1-.206-.479c.078-.177.174-.348.259-.518.021-.046.05-.089.067-.135a2.821 2.821 0 0 1 .664-.919q3.088-3.078 6.162-6.169a.387.387 0 0 1 .299-.148z" transform="translate(-163.902 -136.131)"/>
            <path id="Path_5165" data-name="Path 5165" class="cls-1" d="M386.9 97.633a.35.35 0 0 1 .092-.241c.2-.206.4-.415.614-.607a.743.743 0 0 1 1.1.163.755.755 0 0 1-.11.976c-.167.17-.337.337-.508.5a.377.377 0 0 1-.561 0c-.174-.17-.344-.341-.515-.515a.387.387 0 0 1-.112-.276z" transform="translate(-378.984 -96.608)"/>
        </g>
    </g>
</svg>
