<svg xmlns="http://www.w3.org/2000/svg" width="16.704" height="18" viewBox="0 0 16.704 18">
  <g id="search-post" transform="translate(-40.5 -35.1)">
    <g id="Group_12915" data-name="Group 12915" transform="translate(43.255 40.235)">
      <path id="Path_5289" data-name="Path 5289" d="M112.471,159h-5.519a.552.552,0,1,1,0-1.1h5.519a.552.552,0,0,1,0,1.1Z" transform="translate(-106.4 -157.9)" fill="#333"/>
    </g>
    <g id="Group_12916" data-name="Group 12916" transform="translate(43.255 37.86)">
      <path id="Path_5290" data-name="Path 5290" d="M112.471,102.2h-5.519a.552.552,0,0,1,0-1.1h5.519a.552.552,0,0,1,0,1.1Z" transform="translate(-106.4 -101.1)" fill="#333"/>
    </g>
    <g id="Group_12917" data-name="Group 12917" transform="translate(43.255 42.605)">
      <path id="Path_5291" data-name="Path 5291" d="M108.762,215.7h-1.81a.552.552,0,0,1,0-1.1h1.81a.552.552,0,1,1,0,1.1Z" transform="translate(-106.4 -214.6)" fill="#333"/>
    </g>
    <g id="Group_12918" data-name="Group 12918" transform="translate(40.5 35.1)">
      <path id="Path_5292" data-name="Path 5292" d="M52.638,40.786V37.308A2.211,2.211,0,0,0,50.43,35.1H42.708A2.211,2.211,0,0,0,40.5,37.308V48.346a2.211,2.211,0,0,0,2.208,2.208h3.341l-.694-1.1H42.708a1.1,1.1,0,0,1-1.1-1.1V37.308a1.1,1.1,0,0,1,1.1-1.1H50.43a1.1,1.1,0,0,1,1.1,1.1v3.479l1.1.276Z" transform="translate(-40.5 -35.1)" fill="#333"/>
    </g>
    <path id="Path_5293" data-name="Path 5293" d="M186.4,211.585l-2.542-2.542a4.636,4.636,0,1,0-7.38-.021,4.434,4.434,0,0,0,2.8,1.748,4.617,4.617,0,0,0,3.713-.857l.774.774c.581.581,1.158,1.162,1.744,1.739.021.021.042.042.067.063a.61.61,0,0,0,.406.151.629.629,0,0,0,.418-.159.6.6,0,0,0,.2-.439A.628.628,0,0,0,186.4,211.585Zm-2.826-5.344a3.4,3.4,0,0,1-3.391,3.391h-.008a3.4,3.4,0,0,1-2.417-1.012,3.394,3.394,0,0,1,2.417-5.783h0a3.39,3.39,0,0,1,3.4,3.4Z" transform="translate(-129.395 -159.538)" fill="#333"/>
  </g>
</svg>
