<svg id="social-insurance-number-outline" xmlns="http://www.w3.org/2000/svg" width="20" height="20" viewBox="0 0 20 20">
    <defs>
        <style>
            .cls-1{fill:#ed960b}
        </style>
    </defs>
    <path id="Path_5229" data-name="Path 5229" class="cls-1" d="M106.711 102.166h.145c.761 0 1.516.006 2.277 0a1.8 1.8 0 0 1 1.66.95 1.731 1.731 0 0 1 .208.918v11.642a2.834 2.834 0 0 1-.792 2.031 2.763 2.763 0 0 1-1.887.88c-.195.013-.39.013-.585.013H93.623a2.6 2.6 0 0 1-1.516-.434 2.445 2.445 0 0 1-1.057-1.61 3.09 3.09 0 0 1-.05-.541v-15.541a1.783 1.783 0 0 1 .918-1.642 1.864 1.864 0 0 1 .987-.233h11.937a1.8 1.8 0 0 1 1.868 1.7c.025.572.006 1.145.013 1.723a.452.452 0 0 0-.012.144zm-1.063 15v-.031a3.188 3.188 0 0 1-.365-1.579q0-7.528.006-15.057c0-.352-.126-.478-.472-.478q-5.953 0-11.912.006a.831.831 0 0 0-.176.013.322.322 0 0 0-.289.3.951.951 0 0 0-.013.189q0 3.443.006 6.887v8.61a1.138 1.138 0 0 0 .1.541 1.09 1.09 0 0 0 1.044.616h11.956a.348.348 0 0 1 .115-.017zm1.069-13.572v11.975a2.575 2.575 0 0 0 .013.314 1.427 1.427 0 0 0 2.843-.233v-11.61c0-.321-.126-.447-.453-.447h-2.4z" transform="translate(-91 -98.6)"/>
    <path id="Path_5230" data-name="Path 5230" class="cls-1" d="M141.53 289.2h4.208a.715.715 0 0 1 .195 1.415 1.18 1.18 0 0 1-.214.013h-8.4a.715.715 0 0 1-.2-1.415 1.33 1.33 0 0 1 .22-.013z" transform="translate(-133.662 -277.213)"/>
    <path id="Path_5231" data-name="Path 5231" class="cls-1" d="M141.541 336.034h-4.22a.718.718 0 1 1-.038-1.434h8.465a.731.731 0 0 1 .686.352.715.715 0 0 1-.629 1.082c-.214.006-.434 0-.648 0z" transform="translate(-133.686 -319.757)"/>
    <path id="Path_5232" data-name="Path 5232" class="cls-1" d="M139.612 219.712h-2.8a.533.533 0 0 1-.566-.717 2.758 2.758 0 0 1 1.491-1.893 4.054 4.054 0 0 1 2.616-.39 3.545 3.545 0 0 1 1.792.83 2.634 2.634 0 0 1 .868 1.509.532.532 0 0 1-.541.66z" transform="translate(-133.38 -209.222)"/>
    <path id="Path_5233" data-name="Path 5233" class="cls-1" d="M166.431 147.8a2.146 2.146 0 0 1-.635 1.579 1.487 1.487 0 0 1-2.132 0 1.969 1.969 0 0 1-.509-2.176 1.536 1.536 0 0 1 1.277-1.006 1.664 1.664 0 0 1 1.346.327 1.637 1.637 0 0 1 .653 1.276z" transform="translate(-158.488 -143.176)"/>
</svg>
