<?xml version="1.0" encoding="utf-8"?>
<!-- Generator: Adobe Illustrator 26.0.1, SVG Export Plug-In . SVG Version: 6.00 Build 0)  -->
<svg version="1.1" id="Layer_1" xmlns="http://www.w3.org/2000/svg" xmlns:xlink="http://www.w3.org/1999/xlink" x="0px" y="0px"
	 viewBox="0 0 164.5 199" style="enable-background:new 0 0 164.5 199;" xml:space="preserve">
<style type="text/css">
	.st0{fill:none;stroke:#DA4899;stroke-width:0.2;}
	.st1{fill:#BBBDBF;}
	.st2{fill:#FFFFFF;}
	.st3{fill:#DA322B;}
	.st4{fill:#E6E7E8;}
	.st5{fill:#E98F38;}
	.st6{fill:#ECE84E;}
</style>
<g>
	<path class="st0" d="M162.3,84.3"/>
	<polygon class="st1" points="59.9,72 3.5,45 3.5,100.1 59.9,127.1 	"/>
	<path class="st2" d="M2.1,42.8c-0.8,0.5-1.2,1.3-1.2,2.2v55.1c0,1,0.6,1.9,1.5,2.4l56.5,26.9c0.8,0.4,1.8,0.3,2.5-0.1
		c0.8-0.5,1.2-1.3,1.2-2.2V72c0-1-0.6-1.9-1.5-2.4L4.6,42.7C3.8,42.3,2.8,42.3,2.1,42.8z M6.1,49.2c6.4,3,48.6,23.2,51.2,24.4
		c0,2.9,0,42.4,0,49.3c-6.4-3-48.6-23.2-51.2-24.4C6.1,95.6,6.1,56.1,6.1,49.2z"/>
	<polygon class="st3" points="116.4,98.9 59.9,72 15.3,113.1 71.8,140 	"/>
	<path class="st2" d="M58.2,70l-44.6,41.1c-0.6,0.6-0.9,1.5-0.8,2.3c0.1,0.9,0.7,1.6,1.5,2l56.5,26.9c1,0.5,2.1,0.3,2.9-0.4
		l44.6-41.1c0.6-0.6,0.9-1.5,0.8-2.3c-0.1-0.9-0.7-1.6-1.5-2L61.1,69.6C60.1,69.1,58.9,69.3,58.2,70z M60.4,75.1
		c2.8,1.3,45.4,21.6,51.4,24.5c-4.8,4.5-38.1,35.1-40.4,37.3c-2.8-1.4-45.4-21.7-51.4-24.5C24.8,107.9,58.1,77.2,60.4,75.1z"/>
	<polygon class="st1" points="71.8,140 15.3,113.1 15.3,168.2 71.8,195.1 	"/>
	<path class="st2" d="M13.9,110.9c-0.8,0.5-1.2,1.3-1.2,2.2v55.1c0,1,0.6,1.9,1.5,2.4l56.5,26.9c0.8,0.4,1.8,0.3,2.5-0.1
		c0.8-0.5,1.2-1.3,1.2-2.2V140c0-1-0.6-1.9-1.5-2.4l-56.5-26.9C15.7,110.3,14.7,110.4,13.9,110.9z M18,117.2
		c6.4,3,48.6,23.2,51.2,24.4c0,2.9,0,42.4,0,49.3c-6.4-3-48.6-23.2-51.2-24.4C18,163.6,18,124.1,18,117.2z"/>
	<polygon class="st4" points="116.4,98.9 71.8,140 71.8,195.1 116.4,154 	"/>
	<path class="st2" d="M114.6,97L70,138.1c-0.5,0.5-0.8,1.2-0.8,1.9v55.1c0,1,0.6,2,1.6,2.4c1,0.4,2.1,0.2,2.8-0.5l44.6-41.1
		c0.5-0.5,0.8-1.2,0.8-1.9V98.9c0-1-0.6-2-1.6-2.4C116.5,96.1,115.4,96.3,114.6,97z M113.8,104.9c0,9.3,0,46,0,48
		c-1.5,1.3-32.4,29.8-39.3,36.3c0-9.3,0-46,0-47.9C75.9,139.8,106.8,111.3,113.8,104.9z"/>
	<polygon class="st4" points="161,57.8 116.4,98.9 116.4,154 161,112.9 	"/>
	<path class="st2" d="M159.2,55.9L114.6,97c-0.5,0.5-0.8,1.2-0.8,1.9V154c0,1,0.6,2,1.6,2.4c1,0.4,2.1,0.2,2.8-0.5l44.6-41.1
		c0.5-0.5,0.8-1.2,0.8-1.9V57.8c0-1-0.6-2-1.6-2.4C161.1,55,160,55.2,159.2,55.9z M158.4,63.8c0,9.3,0,46,0,47.9
		c-1.5,1.3-32.3,29.8-39.3,36.3c0-9.3,0-46,0-47.9C120.5,98.7,151.4,70.2,158.4,63.8z"/>
	<polygon class="st5" points="161,57.8 104.5,30.9 59.9,72 116.4,98.9 	"/>
	<path class="st2" d="M102.8,29L58.2,70c-0.6,0.6-0.9,1.5-0.8,2.3c0.1,0.9,0.7,1.6,1.5,2l56.5,26.9c1,0.5,2.1,0.3,2.9-0.4l44.6-41.1
		c0.6-0.6,0.9-1.5,0.8-2.3c-0.1-0.9-0.7-1.6-1.5-2l-56.5-26.9C104.7,28.1,103.5,28.2,102.8,29z M105,34c2.8,1.3,45.4,21.6,51.4,24.5
		c-4.8,4.5-38.1,35.2-40.4,37.3c-2.8-1.4-45.4-21.7-51.4-24.5C69.4,66.8,102.7,36.1,105,34z"/>
	<polygon class="st5" points="104.5,30.9 48,4 3.5,45 59.9,72 	"/>
	<path class="st2" d="M46.3,2L1.7,43.1c-0.6,0.6-0.9,1.5-0.8,2.3c0.1,0.9,0.7,1.6,1.5,2l56.5,26.9c1,0.5,2.1,0.3,2.9-0.4l44.6-41.1
		c0.6-0.6,0.9-1.5,0.8-2.3c-0.1-0.9-0.7-1.6-1.5-2L49.2,1.6C48.2,1.1,47.1,1.3,46.3,2z M48.5,7.1c2.8,1.3,45.4,21.6,51.4,24.5
		C95.1,36,61.8,66.7,59.5,68.8c-2.8-1.4-45.4-21.7-51.4-24.5C12.9,39.9,46.2,9.2,48.5,7.1z"/>
	<path class="st2" d="M46.1,51.5l-7.3-3.4L64.9,24l7.4,3.5L46.1,51.5z"/>
	<path class="st2" d="M130,65.7l-20.2-9.8L98.7,66.5l20.3,9.5l-5.8,5.3L92.7,71.1c-5.2-2.8-5.9-6-2-9.6l10.1-9.4
		c1.8-1.7,3.8-2.6,6.1-2.8c2.3-0.3,4.7,0.2,7.2,1.4l21.1,10.2L130,65.7z"/>
	<path class="st6" d="M73.5,118.6c-4.3,4-8.5,4.8-12.6,2.6L40.5,111l25.2-22.9l19.6,10c2.1,1,3.1,2.4,3.1,4.1c0,1.7-1.9,4.4-4,6.4
		L73.5,118.6z M64.5,115l13.1-11.9L67,97.5l-13.1,11.9L64.5,115z"/>
</g>
</svg>
