<svg xmlns="http://www.w3.org/2000/svg" width="18" height="18.499" viewBox="0 0 18 18.499">
    <defs>
        <style>
            .cls-1{fill:#333}
        </style>
    </defs>
    <g id="edit-member-outline" transform="translate(-78.95 -72.8)">
        <path id="Path_5210" data-name="Path 5210" class="cls-1" d="M160.5 196.787a1.12 1.12 0 0 1-.065.1.786.786 0 0 1-.09.095q-1.96 1.96-3.92 3.915-2.334 2.334-4.678 4.668l-.987.987a1.059 1.059 0 0 1-.284.2c-.484.249-.968.5-1.451.743a.6.6 0 0 1-.514.04.546.546 0 0 1-.3-.708c.115-.259.259-.514.384-.763.03-.07.075-.13.1-.2a2.873 2.873 0 0 1 .15-.3 4.529 4.529 0 0 1 .833-1.052q2.409-2.394 4.8-4.8 2.147-2.147 4.289-4.3a.944.944 0 0 1 .195-.16.4.4 0 0 1 .239-.06.527.527 0 0 1 .409.16c.274.269.539.539.808.813a.536.536 0 0 1 .082.622z" transform="translate(-65.763 -116.281)"/>
        <path id="Path_5211" data-name="Path 5211" class="cls-1" d="M160.5 196.787a1.12 1.12 0 0 1-.065.1.786.786 0 0 1-.09.095q-1.96 1.96-3.92 3.915-2.334 2.334-4.678 4.668l-.987.987a1.059 1.059 0 0 1-.284.2c-.484.249-.968.5-1.451.743a.6.6 0 0 1-.514.04.546.546 0 0 1-.3-.708c.115-.259.259-.514.384-.763.03-.07.075-.13.1-.2a2.873 2.873 0 0 1 .15-.3 4.529 4.529 0 0 1 .833-1.052q2.409-2.394 4.8-4.8 2.147-2.147 4.289-4.3a.944.944 0 0 1 .195-.16.4.4 0 0 1 .239-.06.527.527 0 0 1 .409.16c.274.269.539.539.808.813a.536.536 0 0 1 .082.622z" transform="translate(-65.763 -116.281)"/>
        <g id="Group_12808" data-name="Group 12808" transform="translate(78.95 72.8)">
            <path id="Path_5212" data-name="Path 5212" class="cls-1" d="M161.17 73.987a3.908 3.908 0 0 0-5.6-.01 3.859 3.859 0 0 0-.982 2.943 3.793 3.793 0 1 0 7.571 0c.01-.11.01-.214.01-.324a3.832 3.832 0 0 0-.999-2.609zm-.18 2.853a2.637 2.637 0 1 1-5.237 0 2.7 2.7 0 0 1 .663-2.065 2.745 2.745 0 0 1 3.9 0 2.7 2.7 0 0 1 .675 2.065z" transform="translate(-150.804 -72.8)"/>
            <path id="Path_5213" data-name="Path 5213" class="cls-1" d="M86.518 259.7a8.663 8.663 0 0 0-4.773 1.382 6.213 6.213 0 0 0-2.773 4.139 1.293 1.293 0 0 0 .259 1.057 1.139 1.139 0 0 0 .883.4h1.93c.045-.1.1-.21.155-.309a5.105 5.105 0 0 1 .608-.858h-2.688a.181.181 0 0 1 0-.095c.564-3.132 3.716-4.563 6.4-4.563a7.459 7.459 0 0 1 .878.05c.2-.2.4-.4.608-.613l.4-.4a9.481 9.481 0 0 0-1.887-.19zm7.546 5.521a6.085 6.085 0 0 0-1.731-3.287l-.823.823a4.9 4.9 0 0 1 1.406 2.668.176.176 0 0 1 0 .095h-4.179c-.389.389-.778.778-1.167 1.162h5.346a1.138 1.138 0 0 0 .883-.4 1.3 1.3 0 0 0 .265-1.061z" transform="translate(-78.95 -250.379)"/>
        </g>
        <path id="Path_5214" data-name="Path 5214" class="cls-1" d="M384.909 154c-.244.249-.5.5-.748.738a.652.652 0 0 1-.155.115.548.548 0 0 1-.673-.115c-.254-.249-.509-.5-.758-.758a.569.569 0 0 1-.175-.409.587.587 0 0 1 .065-.259.448.448 0 0 1 .075-.095c.3-.3.589-.613.908-.9a1.1 1.1 0 0 1 1.631.239 1.122 1.122 0 0 1-.17 1.444z" transform="translate(-288.316 -75.308)"/>
    </g>
</svg>
