<?xml version="1.0" encoding="utf-8"?>
<!-- Generator: Adobe Illustrator 26.0.1, SVG Export Plug-In . SVG Version: 6.00 Build 0)  -->
<svg version="1.1" id="Layer_1" xmlns="http://www.w3.org/2000/svg" xmlns:xlink="http://www.w3.org/1999/xlink" x="0px" y="0px"
	 viewBox="0 0 512 512" style="enable-background:new 0 0 512 512;" xml:space="preserve">
<path d="M369.8,346.3c1,0.7,2,1.3,2.8,2.1c37.1,37.1,74.2,74.2,111.3,111.3c7.7,7.7,7.6,18.8,0,25.8c-6.5,5.9-16.6,6-23.1,0.2
	c-0.9-0.8-1.7-1.6-2.5-2.4C421.5,446.6,384.8,409.8,348,373c-0.8-0.8-1.3-1.9-1.9-2.7c-47.2,36.9-99.5,51-157.7,39.9
	c-46.9-9-85.1-33.1-113.7-71.1c-59.5-79-48.5-189.5,25.8-255.1c71.5-63.1,178.3-62.5,249.2,0C424.4,149.9,436.4,264.6,369.8,346.3z
	 M71.4,225.2C70.9,309.7,140,378.9,225,379.1c84.3,0.2,153.4-68.4,153.7-153.3c0.2-84.5-67.5-153.8-153.4-153.9
	C140.7,71.8,72.1,139,71.4,225.2z"/>
<path d="M224.8,302.2c-21.7,0-43.3,0-65,0c-10.2,0-15.5-6.7-13.2-16.7c4.5-20.2,16.6-34.5,34.6-44c19.2-10,39.6-12.7,60.8-9
	c15.6,2.7,29.7,8.7,41.6,19.3c10.6,9.4,17.4,21.1,20.2,35.1c1.6,8.4-4,15.3-12.6,15.3C269,302.2,246.9,302.2,224.8,302.2z"/>
<path d="M264.5,166c-0.2,15.3-5.1,26.9-14.7,36.6c-13.7,13.9-35.8,14-49.5,0c-14-14.4-18.9-31.4-11.8-50.5
	c5-13.4,15.5-21.1,29.7-23.4c11.5-1.9,22,0.5,31.3,7.6C259.7,144.3,264.1,155,264.5,166z"/>
</svg>
