<svg id="tax-number-outline" xmlns="http://www.w3.org/2000/svg" width="20" height="19.224" viewBox="0 0 20 19.224">
    <defs>
        <style>
            .cls-1{fill:#ed960b}
        </style>
    </defs>
    <path id="Path_5234" data-name="Path 5234" class="cls-1" d="M94.228 27.254h-1.293v-6.467a1.3 1.3 0 0 0-1.293-1.293h-9.055a1.3 1.3 0 0 0-1.293 1.293v6.467H80v-6.467a2.589 2.589 0 0 1 2.587-2.587h9.054a2.589 2.589 0 0 1 2.587 2.587z" transform="translate(-77.114 -18.2)"/>
    <path id="Path_5235" data-name="Path 5235" class="cls-1" d="M167.114 102.08h-6.467a.647.647 0 1 1 0-1.293h6.467a.647.647 0 0 1 0 1.293zm0-2.587h-6.467a.647.647 0 1 1 0-1.293h6.467a.647.647 0 0 1 0 1.293z" transform="translate(-153.88 -94.966)"/>
    <path id="Path_5236" data-name="Path 5236" class="cls-1" d="M26.64 237.017H10.56a1.965 1.965 0 0 1-1.96-1.96v-6.9a1.965 1.965 0 0 1 1.96-1.96h16.08a1.965 1.965 0 0 1 1.96 1.96v6.9a1.96 1.96 0 0 1-1.96 1.96zm-16.08-9.524a.668.668 0 0 0-.667.667v6.9a.668.668 0 0 0 .667.667h16.08a.668.668 0 0 0 .667-.667v-6.9a.668.668 0 0 0-.667-.667z" transform="translate(-8.6 -217.793)"/>
    <g id="Group_12811" data-name="Group 12811" transform="translate(3.884 11.261)">
        <path id="Path_5237" data-name="Path 5237" class="cls-1" d="M106.915 297.9v3.8h-1.249v-3.8h-.966v-1.1h3.173v1.1z" transform="translate(-104.7 -296.8)"/>
        <path id="Path_5238" data-name="Path 5238" class="cls-1" d="m174.737 301.795-.238-.707h-1.7l-.259.707h-1.34l1.964-4.895h.986l1.94 4.895zm-1.071-3.371h-.02l-.505 1.673h1.027z" transform="translate(-168.512 -296.896)"/>
        <path id="Path_5239" data-name="Path 5239" class="cls-1" d="m289.956 301.795-1.059-1.734-1 1.734H286.5l1.71-2.607-1.516-2.288h1.419l.841 1.4.812-1.4h1.407l-1.5 2.316 1.694 2.579z" transform="translate(-279.152 -296.896)"/>
    </g>
</svg>
